<svg width="60" height="70" viewBox="0 0 60 70" fill="none" xmlns="http://www.w3.org/2000/svg">
<path opacity="0.2" fill-rule="evenodd" clip-rule="evenodd" d="M50.2144 21.3268L31.4644 10.6634L12.7144 21.3268V42.6535L31.4644 53.3169L50.2144 42.6535V21.3268ZM45.2142 24.1703L31.4642 16.3505L17.7142 24.1703V39.8099L31.4642 47.6297L45.2142 39.8099V24.1703Z" fill="#182448"/>
<path opacity="0.5" fill-rule="evenodd" clip-rule="evenodd" d="M55.1077 18.4832L31.4467 4.97624L7.78564 18.4832V45.4971L31.4467 59.004L55.1077 45.4971V18.4832ZM50.159 21.3082L31.4467 10.6262L12.7344 21.3082V42.6721L31.4467 53.3541L50.159 42.6721V21.3082Z" fill="#182448"/>
<path fill-rule="evenodd" clip-rule="evenodd" d="M33.2018 0.469207C32.1031 -0.156402 30.7536 -0.156403 29.6549 0.469206L4.65489 14.7035C3.54299 15.3366 2.85693 16.5139 2.85693 17.7888V46.2013C2.85693 47.4762 3.54299 48.6535 4.65489 49.2866L29.6549 63.5209C30.7536 64.1465 32.1031 64.1465 33.2018 63.5209L58.2018 49.2866C59.3137 48.6535 59.9998 47.4762 59.9998 46.2013V17.7888C59.9998 16.5139 59.3137 15.3366 58.2018 14.7035L33.2018 0.469207ZM33.2018 6.09699C32.1031 5.47138 30.7536 5.47138 29.6549 6.09699L9.59696 17.5174C8.48506 18.1505 7.799 19.3278 7.799 20.6027V43.3874C7.799 44.6624 8.48506 45.8396 9.59696 46.4727L29.6549 57.8931C30.7536 58.5188 32.1031 58.5188 33.2018 57.8931L53.2597 46.4727C54.3716 45.8396 55.0577 44.6623 55.0577 43.3874V20.6027C55.0577 19.3278 54.3716 18.1505 53.2597 17.5174L33.2018 6.09699Z" fill="#182448"/>
<path d="M10.7143 33.4119C10.7143 36.3565 8.31581 38.7436 5.35714 38.7436C2.39847 38.7436 0 36.3565 0 33.4119C0 30.4673 2.39847 28.0802 5.35714 28.0802C8.31581 28.0802 10.7143 30.4673 10.7143 33.4119Z" fill="#182448"/>
<path d="M35.5357 17.4168C35.5357 19.5762 33.7768 21.3268 31.6071 21.3268C29.4375 21.3268 27.6786 19.5762 27.6786 17.4168C27.6786 15.2575 29.4375 13.5069 31.6071 13.5069C33.7768 13.5069 35.5357 15.2575 35.5357 17.4168Z" fill="#182448"/>
<path fill-rule="evenodd" clip-rule="evenodd" d="M31.6071 42.6535C36.5383 42.6535 40.5357 38.675 40.5357 33.7674C40.5357 28.8597 36.5383 24.8812 31.6071 24.8812C26.676 24.8812 22.6786 28.8597 22.6786 33.7674C22.6786 38.675 26.676 42.6535 31.6071 42.6535ZM31.6071 39.099C34.5658 39.099 36.9643 36.712 36.9643 33.7674C36.9643 30.8227 34.5658 28.4357 31.6071 28.4357C28.6485 28.4357 26.25 30.8227 26.25 33.7674C26.25 36.712 28.6485 39.099 31.6071 39.099Z" fill="#182448"/>
<path d="M29.4643 20.6159H33.75V26.303H29.4643V20.6159Z" fill="#182448"/>
<path d="M25.3571 39.8099L29.6873 42.2981L24.1028 51.9246L19.7727 49.4365L25.3571 39.8099Z" fill="#182448"/>
<path d="M39.6873 43.009L35.3572 45.4971L48.8496 68.7555C49.5399 69.9456 51.0689 70.3533 52.2646 69.6662C53.4604 68.9792 53.8701 67.4575 53.1797 66.2674L39.6873 43.009Z" fill="#182448"/>
<path d="M14.7949 58.2777L19.1251 60.7658L14.5087 68.7236C13.8183 69.9136 12.2894 70.3214 11.0936 69.6343C9.8979 68.9472 9.48821 67.4255 10.1786 66.2355L14.7949 58.2777Z" fill="#182448"/>
</svg>
